<?xml version="1.0" encoding="UTF-8" standalone="no"?>
<!-- Created with Inkscape (http://www.inkscape.org/) -->

<svg
   width="123.42532mm"
   height="116.25256mm"
   viewBox="0 0 123.42532 116.25256"
   version="1.1"
   id="svg1"
   xml:space="preserve"
   sodipodi:docname="bonedry-pi.svg"
   inkscape:export-filename="../../Downloads/bonedry-pi.svg"
   inkscape:export-xdpi="96"
   inkscape:export-ydpi="96"
   inkscape:version="1.4.4 (dcaf3e7, 2026-05-05)"
   xmlns:inkscape="http://www.inkscape.org/namespaces/inkscape"
   xmlns:sodipodi="http://sodipodi.sourceforge.net/DTD/sodipodi-0.dtd"
   xmlns="http://www.w3.org/2000/svg"
   xmlns:svg="http://www.w3.org/2000/svg"><sodipodi:namedview
     id="namedview1"
     pagecolor="#ffffff"
     bordercolor="#000000"
     borderopacity="0.25"
     inkscape:showpageshadow="2"
     inkscape:pageopacity="0.0"
     inkscape:pagecheckerboard="0"
     inkscape:deskcolor="#d1d1d1"
     inkscape:document-units="mm"
     inkscape:zoom="1.8864308"
     inkscape:cx="232.97966"
     inkscape:cy="219.72712"
     inkscape:window-width="1840"
     inkscape:window-height="986"
     inkscape:window-x="60"
     inkscape:window-y="35"
     inkscape:window-maximized="0"
     inkscape:current-layer="svg1" /><defs
     id="defs1" /><g
     id="layer1"
     transform="translate(-42.95824,-83.549392)"
     style="fill:#e3dedb"><g
       id="g5"
       transform="matrix(0.97599331,0,0,0.97599331,2.5128027,3.4011649)"
       style="fill:#e3dedb"><path
         style="fill:#e3dedb;stroke-width:2.53813"
         d="m 165.42766,102.46863 c -1.1641,-2.05228 -7.03027,-3.438029 -1.07,-11.547636 2.69198,-3.662738 -0.81472,-7.52864 -4.49611,-7.366683 -1.19665,0.05265 -4.09343,0.992352 -6.43732,2.088248 -3.04116,1.42191 -6.51764,6.083474 -14.4991,6.286446 -8.02338,0.204034 -20.46903,-1.17582 -32.65995,-0.956113 -13.0696,0.235534 -22.065854,1.202956 -29.034667,0.928474 C 63.48266,91.359878 62.897522,90.166782 56.586265,86.516205 50.464118,82.975011 47.804234,83.080417 45.205573,86.185576 c -2.330536,2.784781 -2.129897,4.538031 0.712132,6.223364 2.012413,1.193355 3.806011,2.759555 3.704507,4.738635 -0.0979,1.908407 -2.028352,0.67545 -3.882779,2.791895 -2.817488,3.21558 -2.474757,3.26925 -2.743113,6.8746 -0.433816,5.82831 2.919303,6.38794 5.9618,6.70262 3.286317,0.33994 3.942315,-3.23373 5.174639,-7.16744 1.426808,-4.55454 3.124731,-5.47519 4.818603,-5.54971 0.687576,-0.0303 2.560294,0.71641 4.161553,1.65925 3.108874,1.83051 3.409735,1.81567 10.157398,-0.50075 3.176475,-1.09052 6.12797,-1.33726 18.180898,-1.51993 27.759399,-0.42071 46.925139,0.59647 54.730899,2.90473 3.18702,0.94241 4.50226,1.8509 7.59794,5.24817 4.74623,5.20861 6.75083,5.41625 10.38342,1.07568 2.55296,-3.05054 2.80447,-4.48247 1.2642,-7.19793 z"
         id="path2" /><path
         style="fill:#e3dedb;stroke-width:1.30564"
         d="m 138.91757,195.85734 c -0.48288,0 0.60484,-1.22529 0.74217,-1.68122 0.24526,-0.81432 0.38186,-0.8696 3.22478,-1.30535 2.22849,-0.34152 4.18813,-2.57278 3.6166,-4.32616 -0.13896,-0.42598 -1.40574,-1.76833 -2.81526,-2.98295 -3.42939,-2.95507 -5.59049,-4.72867 -6.03572,-8.04891 -0.13639,-1.01722 -0.96707,-9.68754 -2.68896,-24.34285 -0.48584,-4.13508 -1.71194,-8.79715 -0.48821,-18.52254 1.21295,-9.63974 0.40013,-8.11145 1.06926,-13.77241 0.56166,-4.7518 1.94899,-1.89856 5.62567,-5.56174 1.95954,-1.95236 3.87616,-1.03431 3.87616,-2.91513 0,-2.78734 -2.87142,-5.63672 -6.82914,-6.77688 -2.87484,-0.82819 -3.49642,-1.03829 -8.09122,0.0508 -2.12009,0.50249 -4.15579,0.84002 -4.52381,0.75011 -1.19942,-0.29315 -2.75332,0.40586 -3.35109,1.50744 -0.82653,1.52305 -1.77098,4.293 -0.67736,6.98698 1.61426,3.97657 5.82385,1.22558 5.25887,11.80927 -1.44012,26.97733 -0.3362,17.91073 -0.51994,31.05612 -0.0679,4.85727 1.90657,14.01227 0.8678,18.44175 -0.94307,4.02133 -1.75357,4.77447 -3.92519,8.84641 -2.03506,3.81583 -4.22606,2.97535 -3.8427,5.78851 0.44382,3.25656 0.46788,4.25652 6.00774,3.29297 2.35021,-0.40881 6.56418,0.16489 9.61871,1.33506 1.51566,0.58053 2.54299,0.88473 2.70038,0.88396 0.15737,-7.6e-4 1.66332,-0.5132 1.18055,-0.5132 z"
         id="path3" /><path
         style="fill:#e3dedb;stroke-width:1.18711"
         d="m 91.149504,189.65171 c -1.429807,4.73456 -6.476353,6.8147 -10.73493,3.27661 -0.395243,-0.32827 -2.107531,-3.6069 -3.352512,-2.10586 -0.721424,0.86981 -1.032996,1.0531 -1.797907,1.96234 -1.527612,1.81593 -0.635139,0.75161 -2.078173,3.28436 -1.133989,1.99033 -0.737638,2.94574 -1.274928,3.51123 -0.875899,0.92166 -2.457913,-1.16082 -3.56909,-3.86665 -2.560874,-6.23643 -1.338435,-4.98492 -1.065765,-9.37586 0.134061,-2.1588 5.011393,-6.68305 5.040876,-16.44814 0.05175,-17.16524 -0.453063,-12.01639 1.911303,-24.87603 3.024024,-16.44749 -0.14801,-16.83715 -1.042329,-19.79373 -0.756167,-2.49985 -2.424648,-3.91697 -4.14419,-4.28882 -3.404039,-0.73608 -5.520865,-3.08746 -5.793545,-6.43541 -0.121954,-1.49993 -0.02281,-2.1406 0.523093,-3.38005 0.826814,-1.87671 1.702586,-2.90681 4.996237,-4.36855 2.020992,-0.89692 7.510599,2.62909 9.274419,1.41966 4.881998,-2.65279 7.141954,-3.57379 9.4148,-2.03042 2.067764,1.40411 4.826132,6.62561 2.473746,10.51709 -0.475195,0.78614 -1.228619,2.22419 -1.674278,3.19572 -0.722272,1.57459 -0.924364,1.77759 -1.860953,1.86926 -0.924333,0.0905 -1.092505,0.25252 -1.398287,1.34959 -0.191227,0.68576 -0.68665,4.81508 -1.101076,9.17631 -0.414423,4.36126 -0.93585,9.38245 -1.158709,11.15825 -1.110982,8.85209 -1.417472,13.31991 -1.422167,20.73165 -0.0054,8.65643 0.303177,6.80775 1.973755,10.94708 1.209381,2.99656 2.578413,4.80746 4.580116,6.05817 2.182607,1.36379 2.79686,2.12089 3.286343,4.05072 0.523549,2.06417 0.522699,2.71119 -0.0054,4.46143 z"
         id="path4" /></g></g></svg>
